<svg xmlns="http://www.w3.org/2000/svg" viewBox="0 0 512 512" role="img" aria-label="Sourdough app icon">
  <rect width="512" height="512" rx="112" fill="#184f35"/>
  <path fill="#f6dfad" d="M128 310c0-89 56-152 137-152 70 0 119 49 119 123 0 61-43 103-105 103H166c-23 0-38-28-38-74Z"/>
  <path fill="#fff4d3" d="M151 311c0-67 43-124 112-124 56 0 94 39 94 94 0 48-33 76-81 76H178c-16 0-27-18-27-46Z"/>
  <path fill="none" stroke="#b77820" stroke-linecap="round" stroke-width="18" d="M221 222c22 19 33 46 33 80"/>
  <path fill="none" stroke="#b77820" stroke-linecap="round" stroke-width="18" d="M286 227c23 20 34 47 33 80"/>
  <circle cx="207" cy="298" r="10" fill="#c58a3a"/>
  <circle cx="289" cy="320" r="8" fill="#c58a3a"/>
  <circle cx="325" cy="279" r="7" fill="#c58a3a"/>
  <path fill="none" stroke="#f7f5ef" stroke-linecap="round" stroke-width="24" d="m185 122 41 41 94-100"/>
</svg>
